<svg width="58" height="58" viewBox="0 0 58 58" fill="none" xmlns="http://www.w3.org/2000/svg">
<g clip-path="url(#clip0_2_237)">
<path d="M37.6093 31.7189C39.8927 31.7189 42.0825 30.8118 43.6971 29.1973C45.3117 27.5827 46.2187 25.3929 46.2187 23.1095C46.2187 20.8262 45.3117 18.6363 43.6971 17.0218C42.0825 15.4072 39.8927 14.5001 37.6093 14.5001H37.6021C37.4918 11.0885 36.1426 7.8339 33.8066 5.34501C31.4706 2.85612 28.308 1.30343 24.9102 0.977332C21.5125 0.651238 18.1122 1.57408 15.3456 3.57325C12.5789 5.57243 10.6352 8.51101 9.8781 11.8394C7.34824 12.1128 5.01871 13.3433 3.36679 15.2788C1.71487 17.2143 0.86564 19.7083 0.993081 22.2497C1.12052 24.7911 2.21499 27.1875 4.05225 28.9481C5.8895 30.7086 8.33045 31.6999 10.875 31.7189H11.7812V42.5939C11.7812 43.0746 11.9722 43.5356 12.3121 43.8755C12.652 44.2154 13.113 44.4064 13.5937 44.4064H19.0312C19.5119 44.4064 19.9729 44.2154 20.3129 43.8755C20.6528 43.5356 20.8437 43.0746 20.8437 42.5939V31.7189H26.2812V34.4376H25.5807C25.231 34.4368 24.8886 34.5372 24.5946 34.7267C24.3007 34.9161 24.0679 35.1866 23.9242 35.5054C23.7805 35.8242 23.7321 36.1777 23.7848 36.5234C23.8375 36.8691 23.9891 37.1922 24.2213 37.4536L29.454 43.3397C29.624 43.5308 29.8326 43.6837 30.0659 43.7884C30.2993 43.8931 30.5522 43.9472 30.8079 43.9472C31.0637 43.9472 31.3166 43.8931 31.5499 43.7884C31.7833 43.6837 31.9918 43.5308 32.1619 43.3397L37.3946 37.4545C37.6265 37.1937 37.7782 36.8714 37.8314 36.5264C37.8846 36.1813 37.8371 35.8283 37.6945 35.5097C37.5518 35.191 37.3203 34.9204 37.0275 34.7302C36.7348 34.54 36.3933 34.4384 36.0443 34.4376H35.3437V31.7189H37.6093ZM19.0312 42.5939H13.5937V26.2814C13.5937 26.041 13.4982 25.8105 13.3283 25.6406C13.1583 25.4706 12.9278 25.3751 12.6875 25.3751H11.0807L16.3125 19.489L21.5433 25.3751H19.9375C19.6971 25.3751 19.4666 25.4706 19.2967 25.6406C19.1267 25.8105 19.0312 26.041 19.0312 26.2814V42.5939ZM20.8437 29.9064V27.1876H21.5443C21.8939 27.1884 22.2364 27.088 22.5303 26.8986C22.8242 26.7091 23.0571 26.4387 23.2008 26.1199C23.3445 25.8011 23.3929 25.4475 23.3401 25.1019C23.2874 24.7562 23.1358 24.4331 22.9036 24.1716L17.6709 18.281C17.4963 18.0976 17.2863 17.9516 17.0535 17.8519C16.8208 17.7521 16.5702 17.7007 16.317 17.7007C16.0638 17.7007 15.8132 17.7521 15.5805 17.8519C15.3477 17.9516 15.1377 18.0976 14.9631 18.281L9.73038 24.1662C9.49696 24.4269 9.34402 24.7497 9.29001 25.0954C9.236 25.4412 9.28325 25.7952 9.42603 26.1147C9.56882 26.4342 9.80104 26.7055 10.0947 26.8959C10.3883 27.0863 10.7307 27.1876 11.0807 27.1876H11.7812V29.9064H10.875C8.73581 29.9009 6.68453 29.0547 5.16362 27.5504C3.64271 26.0461 2.77406 24.0042 2.74505 21.8653C2.71603 19.7263 3.52897 17.6616 5.00851 16.1166C6.48805 14.5716 8.51562 13.6701 10.6538 13.6066C10.8631 13.6008 11.0638 13.5229 11.2221 13.3859C11.3803 13.249 11.4863 13.0615 11.522 12.8553C12.0448 9.83776 13.6808 7.12625 16.1067 5.25701C18.5325 3.38777 21.5714 2.49691 24.6225 2.7606C27.6736 3.02429 30.5147 4.42334 32.5838 6.68107C34.653 8.93879 35.7996 11.8908 35.7968 14.9533C35.7968 15.0357 35.7724 15.4354 35.7724 15.4354C35.7675 15.5663 35.7911 15.6967 35.8415 15.8176C35.8919 15.9386 35.9679 16.0471 36.0642 16.1359C36.1606 16.2246 36.2751 16.2914 36.3998 16.3316C36.5245 16.3718 36.6564 16.3845 36.7865 16.3688C37.0593 16.3327 37.3341 16.3139 37.6093 16.3126C39.412 16.3126 41.1408 17.0287 42.4155 18.3034C43.6901 19.5781 44.4062 21.3069 44.4062 23.1095C44.4062 24.9122 43.6901 26.641 42.4155 27.9156C41.1408 29.1903 39.412 29.9064 37.6093 29.9064H35.3437V19.0314C35.3437 18.5507 35.1528 18.0897 34.8129 17.7498C34.4729 17.4098 34.0119 17.2189 33.5312 17.2189H28.0937C27.613 17.2189 27.152 17.4098 26.8121 17.7498C26.4722 18.0897 26.2812 18.5507 26.2812 19.0314V29.9064H20.8437ZM36.0443 36.2501L30.8125 42.1408L25.5816 36.2501H27.1875C27.4278 36.2501 27.6583 36.1547 27.8283 35.9847C27.9982 35.8147 28.0937 35.5842 28.0937 35.3439V19.0314H33.5312V35.3439C33.5312 35.5842 33.6267 35.8147 33.7967 35.9847C33.9666 36.1547 34.1971 36.2501 34.4375 36.2501H36.0443Z" fill="#282A2B"/>
<g filter="url(#filter0_b_2_237)">
<path d="M51.0853 29.9063C51.0853 29.4255 50.8944 28.9645 50.5545 28.6246C50.2146 28.2847 49.7535 28.0938 49.2728 28.0938H47.8355C47.3549 28.0939 46.8939 28.2849 46.5541 28.6248L45.8037 29.3752C45.6353 29.5436 45.4354 29.6772 45.2154 29.7683C44.9954 29.8595 44.7595 29.9063 44.5214 29.9063H28.4291C27.9484 29.9063 27.4874 30.0972 27.1475 30.4371C26.8076 30.777 26.6166 31.238 26.6166 31.7188V34.4375H51.0853V29.9063Z" fill="#281C1E" fill-opacity="0.12"/>
<path d="M54.3751 36.25H22.4207C22.0254 36.2501 21.6349 36.3365 21.2764 36.503C20.9179 36.6695 20.6 36.9122 20.3449 37.2142C20.0898 37.5161 19.9036 37.8701 19.7992 38.2514C19.6949 38.6327 19.675 39.0321 19.7409 39.4219L22.369 54.8281C22.4749 55.462 22.8024 56.0378 23.2932 56.4527C23.784 56.8676 24.4061 57.0948 25.0488 57.0938H51.747C52.3895 57.0948 53.0116 56.8676 53.5022 56.4526C53.9928 56.0377 54.3202 55.462 54.4258 54.8281L57.054 39.4219C57.1198 39.0322 57.0999 38.6328 56.9957 38.2516C56.8914 37.8704 56.7053 37.5165 56.4503 37.2145C56.1953 36.9126 55.8775 36.6699 55.5191 36.5033C55.1607 36.3367 54.7703 36.2503 54.3751 36.25ZM50.1791 54.375H43.8354C43.595 54.375 43.3645 54.2795 43.1946 54.1096C43.0246 53.9396 42.9291 53.7091 42.9291 53.4688C42.9291 53.2284 43.0246 52.9979 43.1946 52.8279C43.3645 52.658 43.595 52.5625 43.8354 52.5625H50.1791C50.4195 52.5625 50.65 52.658 50.82 52.8279C50.9899 52.9979 51.0854 53.2284 51.0854 53.4688C51.0854 53.7091 50.9899 53.9396 50.82 54.1096C50.65 54.2795 50.4195 54.375 50.1791 54.375Z" fill="#281C1E" fill-opacity="0.12"/>
</g>
</g>
<defs>
<filter id="filter0_b_2_237" x="15.7029" y="24.0938" width="45.3891" height="37" filterUnits="userSpaceOnUse" color-interpolation-filters="sRGB">
<feFlood flood-opacity="0" result="BackgroundImageFix"/>
<feGaussianBlur in="BackgroundImageFix" stdDeviation="2"/>
<feComposite in2="SourceAlpha" operator="in" result="effect1_backgroundBlur_2_237"/>
<feBlend mode="normal" in="SourceGraphic" in2="effect1_backgroundBlur_2_237" result="shape"/>
</filter>
<clipPath id="clip0_2_237">
<rect width="58" height="58" fill="white"/>
</clipPath>
</defs>
</svg>
