<svg width="58" height="58" viewBox="0 0 58 58" fill="none" xmlns="http://www.w3.org/2000/svg">
<path d="M36.7031 0.90625H4.07812C3.35707 0.90625 2.66554 1.19269 2.15568 1.70255C1.64581 2.21242 1.35938 2.90394 1.35938 3.625V36.25C1.35938 36.9711 1.64581 37.6626 2.15568 38.1724C2.66554 38.6823 3.35707 38.9687 4.07812 38.9687H36.7031C37.4242 38.9687 38.1157 38.6823 38.6256 38.1724C39.1354 37.6626 39.4219 36.9711 39.4219 36.25V3.625C39.4219 2.90394 39.1354 2.21242 38.6256 1.70255C38.1157 1.19269 37.4242 0.90625 36.7031 0.90625ZM37.6094 3.625V6.34375H16.4194L14.6069 2.71875H36.7031C36.9435 2.71875 37.174 2.81423 37.3439 2.98418C37.5139 3.15414 37.6094 3.38465 37.6094 3.625ZM4.07812 2.71875H12.5806L14.3931 6.34375H3.17187V3.625C3.17187 3.38465 3.26735 3.15414 3.43731 2.98418C3.60726 2.81423 3.83777 2.71875 4.07812 2.71875ZM36.7031 37.1562H4.07812C3.83777 37.1562 3.60726 37.0608 3.43731 36.8908C3.26735 36.7209 3.17187 36.4904 3.17187 36.25V8.15625H37.6094V36.25C37.6094 36.4904 37.5139 36.7209 37.3439 36.8908C37.174 37.0608 36.9435 37.1562 36.7031 37.1562Z" fill="#282A2B"/>
<path d="M32.1719 12.6875H26.7344C26.0133 12.6875 25.3218 12.9739 24.8119 13.4838C24.3021 13.9937 24.0156 14.6852 24.0156 15.4062V29.9062C24.0156 30.6273 24.3021 31.3188 24.8119 31.8287C25.3218 32.3386 26.0133 32.625 26.7344 32.625H32.1719C32.8929 32.625 33.5845 32.3386 34.0943 31.8287C34.6042 31.3188 34.8906 30.6273 34.8906 29.9062V15.4062C34.8906 14.6852 34.6042 13.9937 34.0943 13.4838C33.5845 12.9739 32.8929 12.6875 32.1719 12.6875ZM33.0781 29.9062C33.0781 30.1466 32.9826 30.3771 32.8127 30.5471C32.6427 30.717 32.4122 30.8125 32.1719 30.8125H26.7344C26.494 30.8125 26.2635 30.717 26.0936 30.5471C25.9236 30.3771 25.8281 30.1466 25.8281 29.9062V15.4062C25.8281 15.1659 25.9236 14.9354 26.0936 14.7654C26.2635 14.5955 26.494 14.5 26.7344 14.5H32.1719C32.4122 14.5 32.6427 14.5955 32.8127 14.7654C32.9826 14.9354 33.0781 15.1659 33.0781 15.4062V29.9062Z" fill="#282A2B"/>
<path d="M20.3906 13.5937H6.79687C6.55652 13.5937 6.32601 13.6892 6.15606 13.8592C5.9861 14.0291 5.89062 14.2596 5.89062 14.5C5.89062 14.7404 5.9861 14.9709 6.15606 15.1408C6.32601 15.3108 6.55652 15.4062 6.79687 15.4062H20.3906C20.631 15.4062 20.8615 15.3108 21.0314 15.1408C21.2014 14.9709 21.2969 14.7404 21.2969 14.5C21.2969 14.2596 21.2014 14.0291 21.0314 13.8592C20.8615 13.6892 20.631 13.5937 20.3906 13.5937Z" fill="#282A2B"/>
<path d="M20.3906 19.0312H6.79687C6.55652 19.0312 6.32601 19.1267 6.15606 19.2967C5.9861 19.4666 5.89062 19.6971 5.89062 19.9375C5.89062 20.1779 5.9861 20.4084 6.15606 20.5783C6.32601 20.7483 6.55652 20.8437 6.79687 20.8437H20.3906C20.631 20.8437 20.8615 20.7483 21.0314 20.5783C21.2014 20.4084 21.2969 20.1779 21.2969 19.9375C21.2969 19.6971 21.2014 19.4666 21.0314 19.2967C20.8615 19.1267 20.631 19.0312 20.3906 19.0312Z" fill="#282A2B"/>
<path d="M20.3906 24.4687H6.79687C6.55652 24.4687 6.32601 24.5642 6.15606 24.7342C5.9861 24.9041 5.89062 25.1346 5.89062 25.375C5.89062 25.6154 5.9861 25.8459 6.15606 26.0158C6.32601 26.1858 6.55652 26.2812 6.79687 26.2812H20.3906C20.631 26.2812 20.8615 26.1858 21.0314 26.0158C21.2014 25.8459 21.2969 25.6154 21.2969 25.375C21.2969 25.1346 21.2014 24.9041 21.0314 24.7342C20.8615 24.5642 20.631 24.4687 20.3906 24.4687Z" fill="#282A2B"/>
<path d="M20.3906 29.9062H6.79687C6.55652 29.9062 6.32601 30.0017 6.15606 30.1717C5.9861 30.3416 5.89062 30.5721 5.89062 30.8125C5.89062 31.0529 5.9861 31.2834 6.15606 31.4533C6.32601 31.6233 6.55652 31.7187 6.79687 31.7187H20.3906C20.631 31.7187 20.8615 31.6233 21.0314 31.4533C21.2014 31.2834 21.2969 31.0529 21.2969 30.8125C21.2969 30.5721 21.2014 30.3416 21.0314 30.1717C20.8615 30.0017 20.631 29.9062 20.3906 29.9062Z" fill="#282A2B"/>
<g filter="url(#filter0_b_2_242)">
<path d="M43.4423 31.0435H31.8686C31.54 33.1428 31.3598 35.2626 31.3294 37.3873H43.9816C43.9516 35.2626 43.7714 33.1427 43.4423 31.0435Z" fill="#281C1E" fill-opacity="0.12"/>
<path d="M44.9709 29.231H54.3868C52.9772 26.6426 50.9866 24.4163 48.5715 22.7269C46.1564 21.0375 43.3826 19.931 40.4678 19.4943C42.466 21.1853 44.061 24.6626 44.9709 29.231Z" fill="#281C1E" fill-opacity="0.12"/>
<path d="M44.9709 47.356C44.0647 51.9253 42.466 55.4026 40.4678 57.0937C43.3826 56.6568 46.1565 55.5501 48.5716 53.8605C50.9867 52.1709 52.9772 49.9445 54.3868 47.356H44.9709Z" fill="#281C1E" fill-opacity="0.12"/>
<path d="M32.2083 47.356C33.4036 52.9503 35.6085 56.4185 37.6557 56.4185C39.703 56.4185 41.907 52.9503 43.1023 47.356H32.2083Z" fill="#281C1E" fill-opacity="0.12"/>
<path d="M45.7941 37.3873H56.641C56.5447 35.208 56.0723 33.0617 55.2444 31.0435H45.2866C45.5953 33.1446 45.7648 35.2638 45.7941 37.3873Z" fill="#281C1E" fill-opacity="0.12"/>
<path d="M55.2444 45.5435C56.0725 43.5253 56.5449 41.3791 56.641 39.1998H45.7941C45.7649 41.3232 45.5953 43.4424 45.2866 45.5435H55.2444Z" fill="#281C1E" fill-opacity="0.12"/>
<path d="M43.9816 39.1998H31.3294C31.3597 41.3244 31.5399 43.4442 31.8686 45.5435H43.4423C43.7715 43.4443 43.9517 41.3244 43.9816 39.1998Z" fill="#281C1E" fill-opacity="0.12"/>
<path d="M43.1023 29.231C41.907 23.6376 39.7021 20.1685 37.6557 20.1685C35.6094 20.1685 33.4036 23.6376 32.2083 29.231H43.1023Z" fill="#281C1E" fill-opacity="0.12"/>
<path d="M20.0674 31.0435C19.2388 33.0616 18.766 35.2078 18.67 37.3873H29.5169C29.5466 35.2638 29.7161 33.1446 30.0244 31.0435H20.0674Z" fill="#281C1E" fill-opacity="0.12"/>
<path d="M30.3397 47.356H20.9238C22.3333 49.9446 24.3238 52.1711 26.7389 53.8607C29.154 55.5503 31.928 56.6569 34.8429 57.0937C32.8446 55.4026 31.2496 51.928 30.3397 47.356Z" fill="#281C1E" fill-opacity="0.12"/>
<path d="M30.3397 29.231C31.246 24.6626 32.8446 21.1853 34.8429 19.4943C31.9281 19.931 29.1542 21.0375 26.7391 22.7269C24.324 24.4163 22.3335 26.6426 20.9238 29.231H30.3397Z" fill="#281C1E" fill-opacity="0.12"/>
<path d="M29.5167 39.1998H18.6689C18.7648 41.3792 19.2376 43.5255 20.0664 45.5435H30.0242C29.7159 43.4424 29.5464 41.3232 29.5167 39.1998Z" fill="#281C1E" fill-opacity="0.12"/>
</g>
<defs>
<filter id="filter0_b_2_242" x="14.6689" y="15.4943" width="45.972" height="45.5994" filterUnits="userSpaceOnUse" color-interpolation-filters="sRGB">
<feFlood flood-opacity="0" result="BackgroundImageFix"/>
<feGaussianBlur in="BackgroundImageFix" stdDeviation="2"/>
<feComposite in2="SourceAlpha" operator="in" result="effect1_backgroundBlur_2_242"/>
<feBlend mode="normal" in="SourceGraphic" in2="effect1_backgroundBlur_2_242" result="shape"/>
</filter>
</defs>
</svg>
