<svg width="58" height="58" viewBox="0 0 58 58" fill="none" xmlns="http://www.w3.org/2000/svg">
<path d="M3.88769 33.8667C3.8037 33.9513 3.73725 34.0518 3.69215 34.1622C3.64705 34.2726 3.62419 34.3908 3.62488 34.5101V45.3851C3.62488 45.6255 3.72036 45.856 3.89032 46.0259C4.06027 46.1959 4.29078 46.2914 4.53113 46.2914C4.77148 46.2914 5.00199 46.1959 5.17195 46.0259C5.3419 45.856 5.43738 45.6255 5.43738 45.3851V34.8817L9.06238 31.2567V31.7732C9.06238 35.6189 10.5901 39.307 13.3093 42.0263C16.0286 44.7456 19.7167 46.2732 23.5624 46.2732C27.408 46.2732 31.0962 44.7456 33.8154 42.0263C36.5347 39.307 38.0624 35.6189 38.0624 31.7732V31.2567L41.6874 34.8817V45.3579C41.6874 45.5983 41.7829 45.8288 41.9528 45.9987C42.1228 46.1687 42.3533 46.2642 42.5936 46.2642C42.834 46.2642 43.0645 46.1687 43.2344 45.9987C43.4044 45.8288 43.4999 45.5983 43.4999 45.3579V34.4829C43.5006 34.3637 43.4777 34.2454 43.4326 34.135C43.3875 34.0246 43.3211 33.9242 43.2371 33.8395L38.0624 28.692V18.5601L43.2371 13.3854C43.3211 13.3007 43.3875 13.2003 43.4326 13.0899C43.4777 12.9795 43.5006 12.8612 43.4999 12.742V1.86698C43.4999 1.62663 43.4044 1.39612 43.2344 1.22616C43.0645 1.05621 42.834 0.960728 42.5936 0.960728C42.3533 0.960728 42.1228 1.05621 41.9528 1.22616C41.7829 1.39612 41.6874 1.62663 41.6874 1.86698V12.3704L38.0624 15.9954C37.9776 14.8527 37.463 13.7845 36.6223 13.006C35.7815 12.2274 34.677 11.7963 33.5311 11.7995H32.6249V9.98698C32.6193 7.7453 31.783 5.58525 30.2777 3.92417L31.7821 2.41979C31.867 2.33554 31.9344 2.23531 31.9804 2.12488C32.0264 2.01444 32.0501 1.89599 32.0501 1.77635C32.0501 1.65672 32.0264 1.53827 31.9804 1.42783C31.9344 1.3174 31.867 1.21716 31.7821 1.13292C31.6123 0.964126 31.3826 0.869385 31.1432 0.869385C30.9037 0.869385 30.6741 0.964126 30.5043 1.13292L28.9274 2.71885C27.3788 1.55988 25.4966 0.933535 23.5624 0.933535C21.6282 0.933535 19.7459 1.55988 18.1974 2.71885L16.7111 1.25073C16.5405 1.07767 16.3081 0.979499 16.065 0.977799C15.822 0.9761 15.5882 1.07102 15.4152 1.24167C15.2421 1.41232 15.144 1.64472 15.1423 1.88776C15.1406 2.13079 15.2355 2.36455 15.4061 2.5376L16.8289 3.96042C15.3302 5.6242 14.5005 7.78395 14.4999 10.0232V11.8357H13.5936C12.4478 11.8326 11.3433 12.2637 10.5025 13.0422C9.66175 13.8208 9.14717 14.8889 9.06238 16.0317L5.43738 12.4067V1.89417C5.43738 1.65381 5.3419 1.4233 5.17195 1.25335C5.00199 1.0834 4.77148 0.987916 4.53113 0.987916C4.29078 0.987916 4.06027 1.0834 3.89032 1.25335C3.72036 1.4233 3.62488 1.65381 3.62488 1.89417V12.7692C3.62419 12.8884 3.64705 13.0067 3.69215 13.1171C3.73725 13.2275 3.8037 13.3279 3.88769 13.4126L9.06238 18.5601V28.692L3.88769 33.8667ZM36.2499 16.367V31.7732C36.2443 34.9775 35.0266 38.061 32.8412 40.4044C30.6558 42.7478 27.6647 44.1775 24.4686 44.4064V13.6482H26.2811V24.9764C26.2789 25.1491 26.326 25.3189 26.4171 25.4657L28.7914 29.2267C28.3414 29.7445 28.0936 30.4075 28.0936 31.0935C28.0936 31.6761 28.2664 32.2455 28.59 32.7299C28.9136 33.2142 29.3736 33.5917 29.9118 33.8147C30.45 34.0376 31.0422 34.0959 31.6135 33.9823C32.1849 33.8686 32.7097 33.5881 33.1216 33.1762C33.5335 32.7643 33.814 32.2395 33.9277 31.6681C34.0413 31.0968 33.983 30.5046 33.7601 29.9664C33.5371 29.4282 33.1596 28.9682 32.6753 28.6446C32.1909 28.321 31.6215 28.1482 31.0389 28.1482C30.7942 28.1535 30.551 28.1869 30.3139 28.2479L28.0936 24.7226V13.6482H30.8124V20.8982C30.8117 21.0175 30.8346 21.1357 30.8797 21.2461C30.9248 21.3566 30.9912 21.457 31.0752 21.5417L32.8877 23.3542C32.9719 23.4391 33.0722 23.5065 33.1826 23.5525C33.293 23.5985 33.4115 23.6222 33.5311 23.6222C33.6508 23.6222 33.7692 23.5985 33.8797 23.5525C33.9901 23.5065 34.0903 23.4391 34.1746 23.3542C34.3434 23.1844 34.4381 22.9547 34.4381 22.7153C34.4381 22.4758 34.3434 22.2462 34.1746 22.0764L32.6249 20.5267V13.6482H33.5311C34.2522 13.6482 34.9437 13.9347 35.4536 14.4445C35.9634 14.9544 36.2499 15.6459 36.2499 16.367V16.367ZM31.0389 29.9607C31.263 29.9607 31.482 30.0272 31.6683 30.1516C31.8546 30.2761 31.9998 30.453 32.0855 30.66C32.1713 30.867 32.1937 31.0948 32.15 31.3145C32.1063 31.5343 31.9984 31.7361 31.84 31.8946C31.6815 32.053 31.4797 32.1609 31.2599 32.2046C31.0402 32.2483 30.8124 32.2259 30.6054 32.1401C30.3984 32.0544 30.2215 31.9092 30.097 31.7229C29.9726 31.5366 29.9061 31.3176 29.9061 31.0935C29.9085 30.7938 30.0286 30.5071 30.2405 30.2951C30.4525 30.0832 30.7392 29.9631 31.0389 29.9607V29.9607ZM23.5624 2.77323C25.4852 2.77323 27.3293 3.53707 28.6889 4.8967C30.0485 6.25634 30.8124 8.10041 30.8124 10.0232V11.8357H16.3124V10.0232C16.3124 8.10041 17.0762 6.25634 18.4359 4.8967C19.7955 3.53707 21.6396 2.77323 23.5624 2.77323V2.77323ZM10.8749 16.367C10.8749 15.6459 11.1613 14.9544 11.6712 14.4445C12.181 13.9347 12.8726 13.6482 13.5936 13.6482H14.4999V20.5267L12.9502 22.0764C12.7814 22.2462 12.6867 22.4758 12.6867 22.7153C12.6867 22.9547 12.7814 23.1844 12.9502 23.3542C13.0344 23.4391 13.1347 23.5065 13.2451 23.5525C13.3555 23.5985 13.474 23.6222 13.5936 23.6222C13.7133 23.6222 13.8317 23.5985 13.9422 23.5525C14.0526 23.5065 14.1528 23.4391 14.2371 23.3542L16.0496 21.5417C16.1336 21.457 16.2 21.3566 16.2451 21.2461C16.2902 21.1357 16.3131 21.0175 16.3124 20.8982V13.6482H19.0311V24.7226L16.8108 28.2479C16.5738 28.1869 16.3305 28.1535 16.0858 28.1482C15.5033 28.1482 14.9338 28.321 14.4495 28.6446C13.9651 28.9682 13.5876 29.4282 13.3647 29.9664C13.1418 30.5046 13.0835 31.0968 13.1971 31.6681C13.3107 32.2395 13.5913 32.7643 14.0032 33.1762C14.4151 33.5881 14.9399 33.8686 15.5112 33.9823C16.0826 34.0959 16.6748 34.0376 17.2129 33.8147C17.7511 33.5917 18.2111 33.2142 18.5348 32.7299C18.8584 32.2455 19.0311 31.6761 19.0311 31.0935C19.0312 30.4075 18.7834 29.7445 18.3333 29.2267L20.7077 25.4657C20.7987 25.3189 20.8459 25.1491 20.8436 24.9764V13.6482H22.6561V44.4064C19.46 44.1775 16.4689 42.7478 14.2836 40.4044C12.0982 38.061 10.8804 34.9775 10.8749 31.7732V16.367ZM17.2186 31.0935C17.2186 31.3176 17.1522 31.5366 17.0277 31.7229C16.9032 31.9092 16.7263 32.0544 16.5193 32.1401C16.3123 32.2259 16.0846 32.2483 15.8648 32.2046C15.6451 32.1609 15.4432 32.053 15.2848 31.8946C15.1264 31.7361 15.0185 31.5343 14.9748 31.3145C14.9311 31.0948 14.9535 30.867 15.0392 30.66C15.125 30.453 15.2702 30.2761 15.4565 30.1516C15.6428 30.0272 15.8618 29.9607 16.0858 29.9607C16.3863 29.9607 16.6744 30.0801 16.8868 30.2925C17.0993 30.505 17.2186 30.7931 17.2186 31.0935Z" fill="#282A2B"/>
<g filter="url(#filter0_b_2_232)">
<path d="M37.1562 28.9276C36.7978 28.9276 36.4473 28.8213 36.1493 28.6222C35.8512 28.423 35.6189 28.1399 35.4817 27.8087C35.3445 27.4775 35.3086 27.1131 35.3786 26.7615C35.4485 26.4099 35.6211 26.087 35.8746 25.8335C36.1281 25.58 36.4511 25.4074 36.8026 25.3374C37.1542 25.2675 37.5187 25.3034 37.8499 25.4406C38.1811 25.5778 38.4641 25.8101 38.6633 26.1081C38.8624 26.4062 38.9688 26.7566 38.9688 27.1151C38.9688 27.5958 38.7778 28.0568 38.4379 28.3967C38.098 28.7367 37.637 28.9276 37.1562 28.9276ZM49.8438 18.0526H24.4688C23.267 18.0526 22.1144 18.53 21.2647 19.3798C20.4149 20.2296 19.9375 21.3821 19.9375 22.5839V38.3889C19.9382 40.9244 20.5647 43.4206 21.7614 45.656C22.9582 47.8913 24.6881 49.7968 26.7978 51.2032L30.8125 53.922V45.7657L27.55 43.3189C27.4374 43.2344 27.3461 43.125 27.2832 42.9991C27.2203 42.8733 27.1875 42.7346 27.1875 42.5939V38.7695C26.3332 38.5489 25.5887 38.0243 25.0935 37.2941C24.5983 36.5639 24.3865 35.6781 24.4976 34.8028C24.6088 33.9276 25.0354 33.1229 25.6974 32.5396C26.3594 31.9564 27.2114 31.6346 28.0938 31.6346C28.9761 31.6346 29.8281 31.9564 30.4901 32.5396C31.1521 33.1229 31.5787 33.9276 31.6899 34.8028C31.801 35.6781 31.5892 36.5639 31.094 37.2941C30.5988 38.0243 29.8543 38.5489 29 38.7695V42.0682L32.2625 44.5151C32.3751 44.5995 32.4664 44.709 32.5293 44.8348C32.5922 44.9607 32.625 45.0994 32.625 45.2401V55.0911L34.6459 56.4323C35.133 56.7541 35.6777 56.9787 36.25 57.0939V30.6132C35.3957 30.3927 34.6512 29.8681 34.156 29.1379C33.6608 28.4076 33.449 27.5218 33.5601 26.6466C33.6713 25.7713 34.0979 24.9666 34.7599 24.3834C35.4219 23.8001 36.2739 23.4783 37.1562 23.4783C38.0386 23.4783 38.8906 23.8001 39.5526 24.3834C40.2146 24.9666 40.6412 25.7713 40.7524 26.6466C40.8635 27.5218 40.6517 28.4076 40.1565 29.1379C39.6613 29.8681 38.9168 30.3927 38.0625 30.6132V57.0939C38.6348 56.9787 39.1795 56.7541 39.6666 56.4323L41.6875 55.0911V45.2401C41.6875 45.0994 41.7203 44.9607 41.7832 44.8348C41.8461 44.709 41.9374 44.5995 42.05 44.5151L45.3125 42.0682V38.7695C44.4582 38.5489 43.7137 38.0243 43.2185 37.2941C42.7233 36.5639 42.5115 35.6781 42.6226 34.8028C42.7338 33.9276 43.1604 33.1229 43.8224 32.5396C44.4844 31.9564 45.3364 31.6346 46.2188 31.6346C47.1011 31.6346 47.9531 31.9564 48.6151 32.5396C49.2771 33.1229 49.7037 33.9276 49.8149 34.8028C49.926 35.6781 49.7142 36.5639 49.219 37.2941C48.7238 38.0243 47.9793 38.5489 47.125 38.7695V42.5214C47.125 42.6621 47.0922 42.8008 47.0293 42.9267C46.9664 43.0525 46.8751 43.1619 46.7625 43.2464L43.5 45.6932V53.8495L47.5147 51.1307C49.6142 49.7311 51.3378 47.8372 52.534 45.6154C53.7302 43.3937 54.3624 40.9121 54.375 38.3889V22.5839C54.375 21.3821 53.8976 20.2296 53.0478 19.3798C52.1981 18.53 51.0455 18.0526 49.8438 18.0526ZM29.9062 35.2714C29.9062 34.9129 29.8 34.5625 29.6008 34.2644C29.4016 33.9663 29.1186 33.734 28.7874 33.5968C28.4562 33.4596 28.0917 33.4238 27.7401 33.4937C27.3886 33.5636 27.0656 33.7362 26.8121 33.9897C26.5586 34.2432 26.386 34.5662 26.3161 34.9178C26.2461 35.2694 26.282 35.6338 26.4192 35.965C26.5564 36.2962 26.7887 36.5792 27.0868 36.7784C27.3848 36.9776 27.7353 37.0839 28.0938 37.0839C28.5745 37.0839 29.0355 36.8929 29.3754 36.553C29.7153 36.2131 29.9062 35.7521 29.9062 35.2714ZM48.0312 35.2714C48.0312 34.9129 47.9249 34.5625 47.7258 34.2644C47.5266 33.9663 47.2436 33.734 46.9124 33.5968C46.5812 33.4596 46.2167 33.4238 45.8651 33.4937C45.5136 33.5636 45.1906 33.7362 44.9371 33.9897C44.6836 34.2432 44.511 34.5662 44.4411 34.9178C44.3711 35.2694 44.407 35.6338 44.5442 35.965C44.6814 36.2962 44.9137 36.5792 45.2118 36.7784C45.5098 36.9776 45.8603 37.0839 46.2188 37.0839C46.6995 37.0839 47.1605 36.8929 47.5004 36.553C47.8403 36.2131 48.0312 35.7521 48.0312 35.2714Z" fill="#281C1E" fill-opacity="0.12"/>
</g>
<defs>
<filter id="filter0_b_2_232" x="15.9375" y="14.0526" width="42.4375" height="47.0413" filterUnits="userSpaceOnUse" color-interpolation-filters="sRGB">
<feFlood flood-opacity="0" result="BackgroundImageFix"/>
<feGaussianBlur in="BackgroundImageFix" stdDeviation="2"/>
<feComposite in2="SourceAlpha" operator="in" result="effect1_backgroundBlur_2_232"/>
<feBlend mode="normal" in="SourceGraphic" in2="effect1_backgroundBlur_2_232" result="shape"/>
</filter>
</defs>
</svg>
