<svg width="58" height="58" viewBox="0 0 58 58" fill="none" xmlns="http://www.w3.org/2000/svg">
<path d="M26.9577 3.62503C24.2213 3.61934 21.533 4.34409 19.1702 5.72446C16.8075 7.10483 14.856 9.0908 13.5172 11.4773C12.1784 13.8639 11.5008 16.5645 11.5544 19.3004C11.608 22.0363 12.3908 24.7083 13.8221 27.0405L1.96589 38.8963C1.28604 39.5761 0.904087 40.4981 0.904053 41.4595C0.904019 42.421 1.28591 43.343 1.96571 44.0229C2.64551 44.7027 3.56754 45.0847 4.52895 45.0847C5.49037 45.0847 6.41243 44.7028 7.09227 44.023L18.9487 32.1671C20.9787 33.4053 23.2679 34.1565 25.6368 34.3619C28.0057 34.5672 30.3899 34.2212 32.6027 33.3508C34.8154 32.4804 36.7966 31.1093 38.3907 29.3451C39.9849 27.5809 41.1488 25.4714 41.7912 23.182C42.4336 20.8927 42.537 18.4856 42.0934 16.1496C41.6498 13.8136 40.6712 11.612 39.2342 9.71753C37.7973 7.82303 35.9412 6.28707 33.8112 5.23005C31.6813 4.17303 29.3355 3.62367 26.9577 3.62503ZM5.81084 42.7416C5.46558 43.0713 5.00653 43.2553 4.52913 43.2553C4.05172 43.2553 3.59268 43.0713 3.24742 42.7416C2.90821 42.4012 2.71774 41.9402 2.71774 41.4597C2.71774 40.9791 2.90821 40.5181 3.24742 40.1777L14.871 28.5545C15.6225 29.5062 16.4829 30.3666 17.4347 31.1181L5.81084 42.7416ZM26.9577 32.625C24.2691 32.625 21.6409 31.8278 19.4054 30.3341C17.17 28.8404 15.4276 26.7173 14.3987 24.2334C13.3699 21.7495 13.1007 19.0162 13.6252 16.3793C14.1497 13.7423 15.4444 11.3202 17.3455 9.41905C19.2466 7.51793 21.6688 6.22325 24.3057 5.69873C26.9426 5.17422 29.6759 5.44342 32.1598 6.4723C34.6438 7.50118 36.7668 9.24352 38.2605 11.479C39.7542 13.7145 40.5515 16.3427 40.5515 19.0313C40.5475 22.6353 39.114 26.0906 36.5655 28.6391C34.0171 31.1875 30.5618 32.621 26.9577 32.625Z" fill="#282A2B"/>
<path d="M26.9576 7.25003C24.6275 7.25003 22.3497 7.94099 20.4123 9.23553C18.4749 10.5301 16.9648 12.3701 16.0731 14.5228C15.1814 16.6755 14.9481 19.0443 15.4027 21.3297C15.8573 23.615 16.9793 25.7142 18.627 27.3619C20.2746 29.0095 22.3738 30.1316 24.6592 30.5862C26.9445 31.0407 29.3133 30.8074 31.4661 29.9157C33.6188 29.024 35.4588 27.514 36.7533 25.5766C38.0479 23.6392 38.7388 21.3614 38.7388 19.0313C38.7353 15.9078 37.4929 12.9132 35.2843 10.7046C33.0756 8.49593 30.0811 7.25356 26.9576 7.25003ZM26.9576 29C24.986 29 23.0586 28.4154 21.4192 27.32C19.7799 26.2246 18.5022 24.6677 17.7477 22.8462C16.9931 21.0246 16.7957 19.0202 17.1804 17.0865C17.565 15.1527 18.5145 13.3765 19.9086 11.9823C21.3028 10.5882 23.079 9.63873 25.0128 9.25408C26.9465 8.86943 28.9509 9.06685 30.7725 9.82136C32.594 10.5759 34.1509 11.8536 35.2463 13.4929C36.3417 15.1323 36.9263 17.0596 36.9263 19.0313C36.9234 21.6742 35.8721 24.2081 34.0033 26.077C32.1344 27.9458 29.6005 28.9971 26.9576 29Z" fill="#282A2B"/>
<path d="M34.4277 16.3397L30.8027 15.4335C30.686 15.4007 30.564 15.3917 30.4437 15.407C30.3235 15.4222 30.2076 15.4615 30.1028 15.5223C29.998 15.5831 29.9065 15.6644 29.8337 15.7612C29.7608 15.858 29.7081 15.9685 29.6787 16.086C29.6493 16.2036 29.6438 16.3258 29.6624 16.4456C29.6811 16.5653 29.7235 16.6801 29.7873 16.7831C29.8511 16.8861 29.9349 16.9753 30.0338 17.0454C30.1326 17.1154 30.2445 17.165 30.3629 17.1911L32.2563 17.6649L28.8261 20.5243L24.8798 16.5781C24.7223 16.4201 24.512 16.3258 24.2893 16.3134C24.0666 16.301 23.8471 16.3713 23.673 16.5108L19.1418 20.1358C18.954 20.2859 18.8335 20.5045 18.8069 20.7434C18.7803 20.9823 18.8497 21.2221 18.9998 21.4098C19.1499 21.5976 19.3684 21.7181 19.6074 21.7447C19.8463 21.7713 20.086 21.7019 20.2738 21.5518L24.1717 18.4332L28.1295 22.3909C28.2894 22.5509 28.5032 22.6453 28.7291 22.6556C28.955 22.666 29.1766 22.5915 29.3504 22.4468L33.3017 19.1541V20.8438C33.3017 21.0841 33.3971 21.3146 33.5671 21.4846C33.737 21.6546 33.9676 21.75 34.2079 21.75C34.4483 21.75 34.6788 21.6546 34.8487 21.4846C35.0187 21.3146 35.1142 21.0841 35.1142 20.8438V17.2188C35.1141 17.0167 35.0465 16.8204 34.9222 16.6611C34.7978 16.5019 34.6237 16.3887 34.4277 16.3397Z" fill="#282A2B"/>
<g filter="url(#filter0_b_2_227)">
<path d="M54.375 34.4375H47.125C46.4042 34.4383 45.7131 34.725 45.2034 35.2347C44.6937 35.7444 44.407 36.4354 44.4062 37.1562V52.5625H42.5938V26.2812C42.593 25.5604 42.3063 24.8694 41.7966 24.3597C41.2869 23.85 40.5958 23.5633 39.875 23.5625H32.625C31.9042 23.5633 31.2131 23.85 30.7034 24.3597C30.1937 24.8694 29.907 25.5604 29.9062 26.2812V52.5625H28.0938V40.7812C28.093 40.0604 27.8063 39.3694 27.2966 38.8597C26.7869 38.35 26.0958 38.0633 25.375 38.0625H18.125C17.4042 38.0633 16.7131 38.35 16.2034 38.8597C15.6937 39.3694 15.407 40.0604 15.4062 40.7812V53.4688C15.4062 53.7091 15.5017 53.9396 15.6717 54.1096C15.8416 54.2795 16.0721 54.375 16.3125 54.375H56.1875C56.4279 54.375 56.6584 54.2795 56.8283 54.1096C56.9983 53.9396 57.0938 53.7091 57.0938 53.4688V37.1562C57.093 36.4354 56.8063 35.7444 56.2966 35.2347C55.7869 34.725 55.0958 34.4383 54.375 34.4375Z" fill="#281C1E" fill-opacity="0.15"/>
</g>
<defs>
<filter id="filter0_b_2_227" x="11.4062" y="19.5625" width="49.6875" height="38.8125" filterUnits="userSpaceOnUse" color-interpolation-filters="sRGB">
<feFlood flood-opacity="0" result="BackgroundImageFix"/>
<feGaussianBlur in="BackgroundImageFix" stdDeviation="2"/>
<feComposite in2="SourceAlpha" operator="in" result="effect1_backgroundBlur_2_227"/>
<feBlend mode="normal" in="SourceGraphic" in2="effect1_backgroundBlur_2_227" result="shape"/>
</filter>
</defs>
</svg>
