<svg width="58" height="58" viewBox="0 0 58 58" fill="none" xmlns="http://www.w3.org/2000/svg">
<path d="M43.7918 1.81246H1.8125C1.57215 1.81246 1.34164 1.90794 1.17168 2.0779C1.00173 2.24785 0.90625 2.47836 0.90625 2.71871C0.90625 2.95907 1.00173 3.18957 1.17168 3.35953C1.34164 3.52948 1.57215 3.62496 1.8125 3.62496H8.39369C8.0475 4.34996 8.19069 4.34996 7.31253 9.07515C7.29078 9.07334 7.27175 9.06246 7.25 9.06246H1.8125C1.57215 9.06246 1.34164 9.15794 1.17168 9.3279C1.00173 9.49785 0.90625 9.72836 0.90625 9.96871C0.90625 10.2091 1.00173 10.4396 1.17168 10.6095C1.34164 10.7795 1.57215 10.875 1.8125 10.875H6.99534L6.03653 16.3125H1.8125C1.57215 16.3125 1.34164 16.4079 1.17168 16.5779C1.00173 16.7478 0.90625 16.9784 0.90625 17.2187C0.90625 17.4591 1.00173 17.6896 1.17168 17.8595C1.34164 18.0295 1.57215 18.125 1.8125 18.125H5.71663L4.75781 23.5625H1.8125C1.57215 23.5625 1.34164 23.6579 1.17168 23.8279C1.00173 23.9978 0.90625 24.2284 0.90625 24.4687C0.90625 24.7091 1.00173 24.9396 1.17168 25.1095C1.34164 25.2795 1.57215 25.375 1.8125 25.375H4.44062L3.66941 29.7485C3.59537 30.0999 3.60165 30.4635 3.68777 30.8122C3.77389 31.1608 3.93763 31.4856 4.16676 31.7621C4.3959 32.0386 4.68453 32.2598 5.01111 32.4093C5.33769 32.5587 5.69379 32.6324 6.05284 32.625H38.6778C39.3987 32.6077 40.092 32.3442 40.6423 31.8782C41.1926 31.4123 41.5669 30.772 41.7029 30.0639L46.1771 4.6889C46.2513 4.33731 46.2451 3.97348 46.159 3.62462C46.0728 3.27575 45.9089 2.95087 45.6796 2.67425C45.4502 2.39764 45.1613 2.17645 44.8344 2.02722C44.5075 1.87799 44.1511 1.80457 43.7918 1.81246ZM25.0007 16.0614L11.4405 3.62496H42.9472L25.0007 16.0614ZM39.9185 29.7458C39.8555 30.0342 39.7004 30.2942 39.4766 30.4867C39.2528 30.6791 38.9724 30.7935 38.6778 30.8125H6.05284C5.95835 30.8205 5.86332 30.8052 5.77615 30.7678C5.68898 30.7304 5.61233 30.6722 5.55297 30.5983C5.4936 30.5243 5.45334 30.4369 5.43573 30.3437C5.41813 30.2505 5.42371 30.1544 5.452 30.0639L9.92525 4.69434L17.4471 11.5954L9.51562 18.3406C9.42494 18.418 9.35038 18.5125 9.2962 18.6186C9.24202 18.7248 9.20928 18.8406 9.19986 18.9594C9.19043 19.0783 9.2045 19.1978 9.24127 19.3112C9.27803 19.4246 9.33677 19.5296 9.41412 19.6203C9.49148 19.711 9.58594 19.7855 9.69212 19.8397C9.79829 19.8939 9.91409 19.9266 10.0329 19.936C10.1517 19.9455 10.2713 19.9314 10.3846 19.8946C10.498 19.8579 10.6031 19.7991 10.6937 19.7218L18.8011 12.8343L24.3147 17.8911C24.4662 18.03 24.6603 18.1133 24.8653 18.1272C25.0703 18.1412 25.274 18.0852 25.443 17.9682L32.8343 12.8461L38.4078 19.6121C38.4835 19.704 38.5765 19.7801 38.6816 19.836C38.7867 19.8919 38.9018 19.9266 39.0203 19.938C39.1387 19.9495 39.2583 19.9374 39.3722 19.9027C39.486 19.8679 39.5919 19.8111 39.6838 19.7354C39.7757 19.6597 39.8517 19.5666 39.9076 19.4615C39.9636 19.3565 39.9982 19.2414 40.0097 19.1229C40.0211 19.0044 40.0091 18.8848 39.9743 18.771C39.9396 18.6571 39.8827 18.5512 39.807 18.4594L34.3297 11.8093L44.3011 4.89371L39.9185 29.7458Z" fill="#282A2B"/>
<path d="M30.2551 27.1875H15.7551C15.5148 27.1875 15.2843 27.2829 15.1143 27.4529C14.9443 27.6229 14.8489 27.8534 14.8489 28.0937C14.8489 28.3341 14.9443 28.5646 15.1143 28.7345C15.2843 28.9045 15.5148 29 15.7551 29H30.2551C30.4955 29 30.726 28.9045 30.8959 28.7345C31.0659 28.5646 31.1614 28.3341 31.1614 28.0937C31.1614 27.8534 31.0659 27.6229 30.8959 27.4529C30.726 27.2829 30.4955 27.1875 30.2551 27.1875Z" fill="#282A2B"/>
<g filter="url(#filter0_b_2_222)">
<path d="M55.2295 34.3225L21.1798 18.4522C18.1892 17.0584 15.0663 20.194 16.8126 22.9091L25.2969 36.0906H38.2382C38.3807 36.0846 38.523 36.1076 38.6565 36.1581C38.79 36.2086 38.9118 36.2856 39.0148 36.3843C39.1178 36.4831 39.1997 36.6017 39.2556 36.733C39.3116 36.8642 39.3405 37.0055 39.3405 37.1481C39.3405 37.2908 39.3116 37.4321 39.2556 37.5633C39.1997 37.6946 39.1178 37.8132 39.0148 37.9119C38.9118 38.0107 38.79 38.0877 38.6565 38.1382C38.523 38.1887 38.3807 38.2116 38.2382 38.2057H25.296L16.8117 51.3844C15.0681 54.095 18.1801 57.2379 21.1798 55.8423L55.2295 39.9738C55.7825 39.7369 56.254 39.3429 56.5852 38.8406C56.9165 38.3383 57.0931 37.7498 57.0931 37.1481C57.0931 36.5464 56.9165 35.958 56.5852 35.4557C56.254 34.9534 55.7825 34.5594 55.2295 34.3225Z" fill="#281C1E" fill-opacity="0.12"/>
</g>
<defs>
<filter id="filter0_b_2_222" x="12.3085" y="14.1097" width="48.7846" height="46.0752" filterUnits="userSpaceOnUse" color-interpolation-filters="sRGB">
<feFlood flood-opacity="0" result="BackgroundImageFix"/>
<feGaussianBlur in="BackgroundImageFix" stdDeviation="2"/>
<feComposite in2="SourceAlpha" operator="in" result="effect1_backgroundBlur_2_222"/>
<feBlend mode="normal" in="SourceGraphic" in2="effect1_backgroundBlur_2_222" result="shape"/>
</filter>
</defs>
</svg>
